<svg width="23" height="23" viewBox="0 0 23 23" fill="none" xmlns="http://www.w3.org/2000/svg">
<path fill-rule="evenodd" clip-rule="evenodd" d="M5.55828 11.5C5.55828 12.4527 4.78597 13.225 3.83328 13.225C2.88059 13.225 2.10828 12.4527 2.10828 11.5C2.10828 10.5473 2.88059 9.77499 3.83328 9.77499C4.78597 9.77499 5.55828 10.5473 5.55828 11.5ZM13.2249 11.5C13.2249 12.4527 12.4526 13.225 11.4999 13.225C10.5473 13.225 9.77494 12.4527 9.77494 11.5C9.77494 10.5473 10.5473 9.77499 11.4999 9.77499C12.4526 9.77499 13.2249 10.5473 13.2249 11.5ZM19.1666 13.225C20.1193 13.225 20.8916 12.4527 20.8916 11.5C20.8916 10.5473 20.1193 9.77499 19.1666 9.77499C18.2139 9.77499 17.4416 10.5473 17.4416 11.5C17.4416 12.4527 18.2139 13.225 19.1666 13.225Z" fill="black"/>
</svg>
