<svg width="90" height="18" viewBox="0 0 90 18" fill="none" xmlns="http://www.w3.org/2000/svg">
<path d="M35.0513 3.71379C34.7432 1.41903 32.8944 0 29.7482 0C26.5615 0 24.4613 1.47579 24.4694 3.87597C24.4613 5.74097 25.6371 6.94917 28.0697 7.43569L30.2266 7.86546C31.3132 8.08439 31.8078 8.48172 31.824 9.10609C31.8078 9.84398 31.005 10.371 29.7968 10.371C28.5643 10.371 27.7453 9.84398 27.5345 8.83039L24.137 9.00878C24.4613 11.3927 26.4885 12.8604 29.7887 12.8604C33.016 12.8604 35.327 11.2144 35.3351 8.75741C35.327 6.95728 34.1512 5.87882 31.7348 5.38419L29.4806 4.9301C28.3211 4.67873 27.8913 4.2814 27.8994 3.68136C27.8913 2.93536 28.7346 2.44883 29.805 2.44883C31.005 2.44883 31.7186 3.10564 31.8889 3.9084L35.0513 3.71379Z" fill="black"/>
<path d="M37.5103 17.2878H40.9646V10.6224H41.07C41.5484 11.6603 42.5944 12.8199 44.6054 12.8199C47.4434 12.8199 49.6571 10.5738 49.6571 6.40589C49.6571 2.12448 47.3461 0 44.6135 0C42.5296 0 41.5322 1.24063 41.07 2.25422H40.9159V0.162174H37.5103V17.2878ZM40.8916 6.38967C40.8916 4.16788 41.8322 2.74885 43.5107 2.74885C45.2217 2.74885 46.1298 4.23275 46.1298 6.38967C46.1298 8.56281 45.2054 10.071 43.5107 10.071C41.8484 10.071 40.8916 8.61146 40.8916 6.38967Z" fill="black"/>
<path d="M55.5116 12.8523C57.3523 12.8523 58.5443 12.0496 59.1524 10.89H59.2497V12.6172H62.5257V4.21653C62.5257 1.24874 60.0119 0 57.2388 0C54.2548 0 52.2925 1.42713 51.814 3.69757L55.0089 3.95705C55.244 3.12996 55.9819 2.52181 57.2225 2.52181C58.3983 2.52181 59.0713 3.11375 59.0713 4.13545V4.1841C59.0713 4.98686 58.2199 5.09227 56.0549 5.3031C53.5898 5.53014 51.3762 6.35723 51.3762 9.13852C51.3762 11.6036 53.1358 12.8523 55.5116 12.8523ZM56.5009 10.4684C55.4386 10.4684 54.6764 9.97372 54.6764 9.025C54.6764 8.05196 55.4792 7.57354 56.6955 7.40326C57.4496 7.29784 58.6821 7.11945 59.0957 6.84376V8.16548C59.0957 9.47098 58.0172 10.4684 56.5009 10.4684Z" fill="black"/>
<path d="M70.833 12.8604C74.1495 12.8604 76.2334 10.9143 76.3956 8.05196H73.1359C72.9332 9.38178 72.0574 10.1278 70.8736 10.1278C69.2599 10.1278 68.2139 8.77363 68.2139 6.38967C68.2139 4.03814 69.2681 2.69209 70.8736 2.69209C72.1385 2.69209 72.9494 3.52729 73.1359 4.76793H76.3956C76.2497 1.88933 74.0684 0 70.8168 0C67.0382 0 64.7028 2.61912 64.7028 6.43832C64.7028 10.2251 66.9976 12.8604 70.833 12.8604Z" fill="black"/>
<path d="M84.2834 12.8604C87.3647 12.8604 89.4405 11.3603 89.927 9.04933L86.7322 8.8385C86.3835 9.78722 85.4916 10.2819 84.3401 10.2819C82.613 10.2819 81.5183 9.13852 81.5183 7.28163V7.27352H90V6.3248C90 2.09205 87.4377 0 84.1455 0C80.4804 0 78.1045 2.6029 78.1045 6.44643C78.1045 10.3954 80.4479 12.8604 84.2834 12.8604ZM81.5183 5.13282C81.5913 3.71379 82.6697 2.57857 84.2023 2.57857C85.7024 2.57857 86.7403 3.64892 86.7484 5.13282H81.5183Z" fill="black"/>
<path d="M0 8.81146H19.9799V12.6172H0V8.81146Z" fill="url(#paint0_linear)"/>
<defs>
<linearGradient id="paint0_linear" x1="8.98269e-09" y1="10.5" x2="20" y2="10.5" gradientUnits="userSpaceOnUse">
<stop stop-color="#7E9BFF"/>
<stop offset="1" stop-color="#4945FF"/>
</linearGradient>
</defs>
</svg>
