<svg width="23" height="23" viewBox="0 0 23 23" fill="none" xmlns="http://www.w3.org/2000/svg">
<path fill-rule="evenodd" clip-rule="evenodd" d="M7.56209 8.32873C7.29262 8.5982 7.29262 9.03507 7.56209 9.30454C7.83155 9.574 8.26843 9.574 8.5379 9.30454L11.5 6.34243L14.4621 9.30454C14.7316 9.574 15.1684 9.574 15.4379 9.30454C15.7073 9.03507 15.7073 8.5982 15.4379 8.32873L11.9879 4.87873C11.8585 4.74933 11.683 4.67664 11.5 4.67664C11.317 4.67664 11.1415 4.74933 11.0121 4.87873L7.56209 8.32873ZM15.4379 14.6712C15.7073 14.4017 15.7073 13.9649 15.4379 13.6954C15.1684 13.4259 14.7316 13.4259 14.4621 13.6954L11.5 16.6575L8.5379 13.6954C8.26843 13.4259 7.83155 13.4259 7.56209 13.6954C7.29262 13.9649 7.29262 14.4017 7.56209 14.6712L11.0121 18.1212C11.2816 18.3906 11.7184 18.3906 11.9879 18.1212L15.4379 14.6712Z" fill="black"/>
</svg>
