<svg width="15" height="15" viewBox="0 0 15 15" fill="none" xmlns="http://www.w3.org/2000/svg">
<path fill-rule="evenodd" clip-rule="evenodd" d="M10.7598 5.07894C11.005 5.22518 11.0738 5.52505 10.9135 5.74872L7.30746 10.7809C7.22247 10.8996 7.08479 10.9781 6.93076 10.9961C6.77672 11.0141 6.6218 10.9695 6.50689 10.8742L4.17358 8.9387C3.95687 8.75894 3.94091 8.45292 4.13791 8.25519C4.33492 8.05745 4.67031 8.04287 4.88702 8.22264L6.76013 9.77637L10.0258 5.21913C10.1861 4.99546 10.5147 4.9327 10.7598 5.07894Z" fill="black"/>
<path fill-rule="evenodd" clip-rule="evenodd" d="M12.5 2H2.5C2.22386 2 2 2.22386 2 2.5V12.5C2 12.7761 2.22386 13 2.5 13H12.5C12.7761 13 13 12.7761 13 12.5V2.5C13 2.22386 12.7761 2 12.5 2ZM2.5 1C1.67157 1 1 1.67157 1 2.5V12.5C1 13.3284 1.67157 14 2.5 14H12.5C13.3284 14 14 13.3284 14 12.5V2.5C14 1.67157 13.3284 1 12.5 1H2.5Z" fill="black"/>
</svg>
